<svg xmlns="http://www.w3.org/2000/svg" style="display: none;">
<svg aria-hidden="true" style="position: absolute; width: 0; height: 0; overflow: hidden;" version="1.1" xmlns="http://www.w3.org/2000/svg" xmlns:xlink="http://www.w3.org/1999/xlink">
<defs>
<symbol id="icon-Vector" viewBox="0 0 18 32">
<path d="M0.914 26.286l10.286-10.286-10.286-10.286 2.057-4.114 14.4 14.4-14.4 14.4-2.057-4.114z"></path>
</symbol>
</defs>
</svg>
<symbol id="icon-Ellipse-24" viewBox="0 0 39 32">
<path fill="#7d55ff" style="fill: var(--color1, #7d55ff)" opacity="0.5" d="M24.783 16c0 1.090-3.963 1.974-8.851 1.974s-8.851-0.884-8.851-1.974c0-1.090 3.963-1.974 8.851-1.974s8.851 0.884 8.851 1.974z"></path>
</symbol>
<symbol id="android-icon" viewBox="0 0 28 32">
<path d="M5.261 24.204c0 0.836 0.708 1.518 1.578 1.518h1.804v4.3c0 1.089 0.908 1.979 2.023 1.979 1.119 0 2.023-0.886 2.023-1.979v-4.303h3.149v4.3c0 1.089 0.908 1.979 2.023 1.979 1.119 0 2.023-0.886 2.023-1.979v-4.3h1.804c0.871 0 1.578-0.682 1.578-1.518v-14.114h-18.005v14.117zM18.49 2.773l1.663-2.321c0.096-0.136 0.074-0.318-0.056-0.407-0.13-0.086-0.315-0.043-0.411 0.093l-1.726 2.414c-1.137-0.432-2.404-0.671-3.734-0.671s-2.597 0.239-3.734 0.671l-1.726-2.411c-0.096-0.136-0.282-0.182-0.411-0.093-0.13 0.086-0.152 0.264-0.056 0.407l1.663 2.321c-2.645 1.186-4.497 3.432-4.735 6.057h18.005c-0.245-2.628-2.101-4.875-4.742-6.060zM10.425 6.433c-0.197 0-0.39-0.056-0.554-0.162s-0.292-0.256-0.367-0.431c-0.075-0.176-0.095-0.369-0.057-0.555s0.133-0.358 0.273-0.492 0.317-0.226 0.51-0.263c0.193-0.037 0.394-0.018 0.576 0.055s0.338 0.196 0.447 0.354 0.168 0.344 0.168 0.534c-0.001 0.255-0.106 0.499-0.293 0.679s-0.44 0.281-0.704 0.282zM18.145 6.433c-0.197 0-0.39-0.056-0.554-0.162s-0.292-0.256-0.367-0.431c-0.075-0.176-0.095-0.369-0.057-0.555s0.133-0.358 0.273-0.492 0.317-0.226 0.51-0.263c0.193-0.037 0.394-0.018 0.576 0.055s0.338 0.196 0.447 0.354 0.168 0.344 0.168 0.534c-0.001 0.255-0.106 0.499-0.293 0.679s-0.44 0.281-0.704 0.282zM26.422 10.030c-1.119 0-2.023 0.886-2.023 1.979v7.728c0 1.089 0.908 1.979 2.023 1.979 1.119 0 2.023-0.886 2.023-1.979v-7.732c0.004-1.093-0.9-1.975-2.023-1.975zM2.023 10.030c-1.119 0-2.023 0.886-2.023 1.979v7.728c0 1.089 0.908 1.979 2.023 1.979 1.119 0 2.023-0.886 2.023-1.979v-7.732c0-1.093-0.908-1.975-2.023-1.975z"></path>
</symbol>
<symbol id="apple-el" viewBox="0 0 28 32">
<path d="M27.743 0c-7.255 0.484-15.719 5.021-20.676 10.945-4.498 5.368-8.198 13.332-6.747 21.055h0.58c7.726 0 15.634-4.57 20.253-10.425 4.45-5.573 7.823-13.472 6.59-21.575z"></path>
</symbol>
<symbol id="apple-icon" viewBox="0 0 36 32">
<path d="M26.408 0c-3.734 0-5.312 1.794-7.913 1.794-2.666 0-4.7-1.781-7.936-1.781-3.167 0-6.545 1.947-8.69 5.264-3.012 4.677-2.501 13.486 2.377 20.991 1.745 2.686 4.075 5.699 7.131 5.732h0.056c2.656 0 3.445-1.751 7.101-1.772h0.056c3.601 0 4.323 1.761 6.968 1.761h0.056c3.056-0.033 5.511-3.371 7.256-6.047 1.256-1.925 1.723-2.891 2.686-5.068-7.056-2.697-8.19-12.768-1.211-16.63-2.13-2.686-5.123-4.241-7.945-4.241l0.009-0.004z"></path>
</symbol>
<symbol id="icon-facebook" viewBox="0 0 32 32">
<path d="M19 6h5v-6h-5c-3.86 0-7 3.14-7 7v3h-4v6h4v16h6v-16h5l1-6h-6v-3c0-0.542 0.458-1 1-1z"></path>
</symbol>
<symbol id="icon-twitter" viewBox="0 0 32 32">
<path d="M32 7.075c-1.175 0.525-2.444 0.875-3.769 1.031 1.356-0.813 2.394-2.1 2.887-3.631-1.269 0.75-2.675 1.3-4.169 1.594-1.2-1.275-2.906-2.069-4.794-2.069-3.625 0-6.563 2.938-6.563 6.563 0 0.512 0.056 1.012 0.169 1.494-5.456-0.275-10.294-2.888-13.531-6.862-0.563 0.969-0.887 2.1-0.887 3.3 0 2.275 1.156 4.287 2.919 5.463-1.075-0.031-2.087-0.331-2.975-0.819 0 0.025 0 0.056 0 0.081 0 3.181 2.263 5.838 5.269 6.437-0.55 0.15-1.131 0.231-1.731 0.231-0.425 0-0.831-0.044-1.237-0.119 0.838 2.606 3.263 4.506 6.131 4.563-2.25 1.762-5.075 2.813-8.156 2.813-0.531 0-1.050-0.031-1.569-0.094 2.913 1.869 6.362 2.95 10.069 2.95 12.075 0 18.681-10.006 18.681-18.681 0-0.287-0.006-0.569-0.019-0.85 1.281-0.919 2.394-2.075 3.275-3.394z"></path>
</symbol>
<symbol id="icon-linkedin2" viewBox="0 0 32 32">
<path d="M12 12h5.535v2.837h0.079c0.77-1.381 2.655-2.837 5.464-2.837 5.842 0 6.922 3.637 6.922 8.367v9.633h-5.769v-8.54c0-2.037-0.042-4.657-3.001-4.657-3.005 0-3.463 2.218-3.463 4.509v8.688h-5.767v-18z"></path>
<path d="M2 12h6v18h-6v-18z"></path>
<path d="M8 7c0 1.657-1.343 3-3 3s-3-1.343-3-3c0-1.657 1.343-3 3-3s3 1.343 3 3z"></path>
</symbol>
<symbol id="icon-close" viewBox="0 0 32 32">
<path d="M18.193 16l12.896-12.896c0.255-0.298 0.388-0.68 0.373-1.072s-0.178-0.763-0.455-1.040-0.648-0.439-1.040-0.454c-0.392-0.015-0.774 0.118-1.072 0.373l-12.895 12.896-12.896-12.911c-0.293-0.293-0.69-0.457-1.104-0.457s-0.812 0.165-1.104 0.457c-0.293 0.293-0.457 0.69-0.457 1.104s0.165 0.812 0.457 1.104l12.911 12.896-12.911 12.896c-0.163 0.14-0.295 0.311-0.388 0.504s-0.146 0.403-0.154 0.617c-0.008 0.214 0.028 0.428 0.106 0.627s0.197 0.381 0.348 0.533c0.152 0.152 0.333 0.27 0.532 0.348s0.413 0.114 0.627 0.106c0.214-0.008 0.424-0.061 0.617-0.154s0.365-0.226 0.504-0.388l12.911-12.896 12.895 12.896c0.298 0.255 0.68 0.388 1.072 0.373s0.763-0.177 1.040-0.454 0.439-0.648 0.455-1.040c0.015-0.392-0.118-0.774-0.373-1.072l-12.896-12.896z"></path>
</symbol>
<symbol id="icon-file-download" viewBox="0 0 24 32">
<path d="M14.088 8.425v-8.425h-12.579c-0.836 0-1.509 0.663-1.509 1.487v28.743c0 0.824 0.673 1.487 1.509 1.487h21.132c0.836 0 1.509-0.663 1.509-1.487v-20.318h-8.553c-0.83 0-1.509-0.669-1.509-1.487zM18.896 21.518l-6.064 5.928c-0.418 0.409-1.094 0.409-1.512 0l-6.064-5.928c-0.638-0.624-0.191-1.695 0.708-1.695h4.099v-4.956c0-0.548 0.45-0.991 1.006-0.991h2.013c0.556 0 1.006 0.444 1.006 0.991v4.956h4.099c0.898 0 1.346 1.071 0.709 1.695zM23.711 6.504l-6.157-6.071c-0.283-0.279-0.667-0.434-1.069-0.434h-0.384v7.929h8.050v-0.378c0-0.39-0.157-0.768-0.44-1.047z"></path>
</symbol>
</svg>
